<?xml version="1.0" encoding="UTF-8" standalone="no"?>
<svg width="51px" height="50px" viewBox="0 0 51 50" version="1.1" xmlns="http://www.w3.org/2000/svg" xmlns:xlink="http://www.w3.org/1999/xlink">
    <!-- Generator: Sketch 3.7.2 (28276) - http://www.bohemiancoding.com/sketch -->
    <title>blankpage_on</title>
    <desc>Created with Sketch.</desc>
    <defs></defs>
    <g id="Page-1" stroke="none" stroke-width="1" fill="none" fill-rule="evenodd">
        <g id="Desktop" transform="translate(-1087.000000, -1299.000000)">
            <g id="blank-document" transform="translate(1087.000000, 1299.000000)">
                <g id="Group" transform="translate(11.000000, 5.000000)">
                    <g id="Icons">
                        <g id="Group">
                            <path d="M2.55555556,40 C1.69792593,40 1,39.2906216 1,38.4189189 L1,2.58108108 C1,1.70937838 1.69792593,1 2.55555556,1 L18.7426667,1 L20.794963,9.33967568 L29,11.4256486 L29,38.4189189 C29,39.2906216 28.3020741,40 27.4444444,40 L2.55555556,40 L2.55555556,40 Z" id="Shape" fill="#FFFFFF"></path>
                            <path d="M17.8428077,1 L19.7234615,8.64538889 L19.8750769,9.25972222 L20.4794615,9.41383333 L28,11.3243889 L28,37.9444444 C28,38.5260556 27.5337308,39 26.9615385,39 L2.03846154,39 C1.46626923,39 1,38.5260556 1,37.9444444 L1,2.05555556 C1,1.47394444 1.46626923,1 2.03846154,1 L17.8428077,1 L17.8428077,1 Z M18,0 L16,0 L2.07142857,0 C0.932142857,0 0,0.947368421 0,2.10526316 L0,37.8947368 C0,39.0526316 0.932142857,40 2.07142857,40 L26.9285714,40 C28.0678571,40 29,39.0526316 29,37.8947368 L29,11 C29,10.8878581 20.7142857,8.42105263 20.7142857,8.42105263 L18,0 L18.6428571,0 L18,0 Z" id="Shape" fill="#777677"></path>
                        </g>
                        <g id="Group" transform="translate(17.000000, 0.000000)">
                            <path d="M2.6456,12 C1.7381,12 1,11.2597 1,10.35 L1,1 L1.55,1 C1.6963,1 1.8349,1.0572 1.9394,1.1606 L11.8383,11.0617 C11.9417,11.1651 12,11.3059 12,11.45 L12,12 L2.6456,12 L2.6456,12 Z" id="Shape" fill="#DFDFDF"></path>
                            <path d="M1,1 L11,11 L2.10666667,11 C1.49666667,11 1,10.5011111 1,9.88888889 L1,1 L1,1 Z M1.09090909,0 L0,0 L0,9.81818182 C0,11.0181818 0.979636364,12 2.17745455,12 L12,12 L12,10.9090909 C12,10.62 11.8854545,10.3429091 11.6803636,10.1389091 L1.86218182,0.317454545 C1.65709091,0.114545455 1.38,0 1.09090909,0 L1.09090909,0 L1.09090909,0 Z" id="Shape" fill="#777677"></path>
                        </g>
                    </g>
                </g>
            </g>
        </g>
    </g>
</svg>